<svg width="24" height="24" viewBox="0 0 24 24" fill="none" xmlns="http://www.w3.org/2000/svg">
<path d="M3.9995 9.21311C4.65683 9.21311 5.008 8.85293 5.008 8.1956V6.23262C5.008 5.4042 5.43122 5.008 6.22361 5.008H8.22261C8.87994 5.008 9.24012 4.64782 9.24012 3.9995C9.24012 3.35118 8.87994 3 8.22261 3H6.05253C4.06253 3 3 4.04452 3 6.02551V8.1956C3 8.85293 3.36018 9.21311 3.9995 9.21311ZM20.0005 9.21311C20.6488 9.21311 21 8.85293 21 8.1956V6.02551C21 4.05353 19.9465 3 17.9475 3H15.7774C15.1201 3 14.7599 3.35118 14.7599 3.9995C14.7599 4.64782 15.1201 5.008 15.7774 5.008H17.7764C18.5598 5.008 18.992 5.4042 18.992 6.23262V8.1956C18.992 8.85293 19.3522 9.21311 20.0005 9.21311ZM11.2841 13.5083H11.3652C12.3107 13.5083 12.8239 12.986 12.8239 12.0495V9.24012C12.8239 8.85293 12.5718 8.5918 12.1846 8.5918C11.7884 8.5918 11.5273 8.85293 11.5273 9.24012V12.0765C11.5273 12.1576 11.4822 12.2026 11.4102 12.2026H11.1581C10.7889 12.2026 10.5098 12.4727 10.5098 12.8329C10.5098 13.2561 10.8069 13.5083 11.2841 13.5083ZM8.65483 11.4012C9.11406 11.4012 9.43822 11.077 9.43822 10.6178V9.3932C9.43822 8.93397 9.11406 8.6008 8.65483 8.6008C8.2046 8.6008 7.87144 8.93397 7.87144 9.3932V10.6178C7.87144 11.077 8.2046 11.4012 8.65483 11.4012ZM15.3272 11.4012C15.7774 11.4012 16.1016 11.077 16.1016 10.6178V9.3932C16.1016 8.93397 15.7774 8.6008 15.3272 8.6008C14.8679 8.6008 14.5348 8.93397 14.5348 9.3932V10.6178C14.5348 11.077 14.8679 11.4012 15.3272 11.4012ZM11.9595 16.4347C13.049 16.4347 14.1566 15.9665 14.949 15.1741C15.066 15.057 15.1291 14.8949 15.1291 14.6968C15.1291 14.3277 14.8409 14.0485 14.4717 14.0485C14.2826 14.0485 14.1476 14.1206 13.9675 14.3187C13.4902 14.8049 12.7249 15.1471 11.9595 15.1471C11.2211 15.1471 10.4557 14.8229 9.95148 14.3097C9.78939 14.1566 9.65433 14.0485 9.42921 14.0485C9.06003 14.0485 8.78089 14.3277 8.78089 14.6968C8.78089 14.8679 8.83492 15.012 8.96098 15.1651C9.67234 15.9845 10.8159 16.4347 11.9595 16.4347ZM6.05253 21H8.22261C8.87994 21 9.24012 20.6398 9.24012 19.9915C9.24012 19.3522 8.87994 18.992 8.22261 18.992H6.22361C5.43122 18.992 5.008 18.5958 5.008 17.7674V15.7954C5.008 15.1471 4.64782 14.7869 3.9995 14.7869C3.35118 14.7869 3 15.1471 3 15.7954V17.9745C3 19.9465 4.06253 21 6.05253 21ZM15.7774 21H17.9475C19.9465 21 21 19.9465 21 17.9745V15.7954C21 15.1471 20.6398 14.7869 20.0005 14.7869C19.3432 14.7869 18.992 15.1471 18.992 15.7954V17.7674C18.992 18.5958 18.5598 18.992 17.7764 18.992H15.7774C15.1201 18.992 14.7599 19.3522 14.7599 19.9915C14.7599 20.6398 15.1201 21 15.7774 21Z" fill="" fill-opacity="0.88"/>
</svg>
