<svg width="24" height="21" viewBox="0 0 24 21" fill="none" xmlns="http://www.w3.org/2000/svg">
<path fill-rule="evenodd" clip-rule="evenodd" d="M2.50586 0.0107422H21.5059C21.8342 0.0107422 22.1593 0.0754068 22.4626 0.201044C22.7659 0.32668 23.0415 0.510829 23.2736 0.742975C23.5058 0.975122 23.6899 1.25072 23.8156 1.55403C23.9412 1.85735 24.0059 2.18244 24.0059 2.51074V17.5107C24.0059 18.1738 23.7425 18.8097 23.2736 19.2785C22.8048 19.7474 22.1689 20.0107 21.5059 20.0107H2.50586C1.84282 20.0107 1.20693 19.7474 0.738092 19.2785C0.269251 18.8097 0.00585938 18.1738 0.00585938 17.5107V2.51074C0.00585938 2.18244 0.0705236 1.85735 0.19616 1.55403C0.321797 1.25072 0.505946 0.975122 0.738092 0.742975C0.970239 0.510829 1.24584 0.32668 1.54915 0.201044C1.85246 0.0754068 2.17755 0.0107422 2.50586 0.0107422ZM4.08806 18.4148C4.32894 18.5258 4.604 18.5365 4.85283 18.4448C5.10167 18.3531 5.30393 18.1664 5.41521 17.9257L7.81441 12.7295L9.80076 14.7145C9.91467 14.8284 10.0544 14.9131 10.2081 14.9614C10.3618 15.0097 10.5248 15.0202 10.6834 14.9919C10.842 14.9636 10.9914 14.8974 11.1189 14.799C11.2464 14.7006 11.3482 14.5728 11.4158 14.4265L13.7137 9.45034L15.7084 12.1088C15.8179 12.2547 15.9653 12.3679 16.1346 12.436C16.3039 12.5042 16.4886 12.5248 16.6687 12.4955C16.8488 12.4663 17.0175 12.3883 17.1565 12.2701C17.2955 12.1519 17.3996 11.9979 17.4574 11.8248L20.4579 2.82759C20.5417 2.57594 20.5221 2.30129 20.4035 2.06406C20.2848 1.82683 20.0768 1.64646 19.8251 1.56262C19.5735 1.47878 19.2988 1.49834 19.0616 1.61699C18.8244 1.73565 18.644 1.94369 18.5602 2.19534L16.1633 9.38244L14.3083 6.90999C14.2044 6.77157 14.0663 6.66248 13.9076 6.59339C13.7489 6.5243 13.5749 6.49758 13.4028 6.51583C13.2306 6.53409 13.0662 6.59669 12.9255 6.69753C12.7848 6.79837 12.6727 6.934 12.6001 7.09114L10.2009 12.2873L8.21461 10.3023C8.10066 10.1884 7.9609 10.1037 7.8072 10.0555C7.65351 10.0072 7.49043 9.99675 7.33183 10.025C7.17324 10.0533 7.02382 10.1195 6.89628 10.2179C6.76874 10.3163 6.66687 10.4441 6.59931 10.5903L3.59901 17.088C3.48795 17.3288 3.47708 17.6039 3.56879 17.8527C3.6605 18.1015 3.84728 18.3037 4.08806 18.4148Z" fill=""/>
</svg>
