<svg width="24" height="24" viewBox="0 0 24 24" fill="" xmlns="http://www.w3.org/2000/svg">
<path fill-rule="evenodd" clip-rule="evenodd" d="M20.0046 1.01027C20.2698 1.01027 20.5242 1.11563 20.7117 1.30316C20.8992 1.4907 21.0046 1.74505 21.0046 2.01027V6.27292C21.0045 6.34704 20.9825 6.41948 20.9413 6.48108C20.9001 6.54269 20.8415 6.59071 20.7731 6.61906C20.7046 6.64742 20.6292 6.65484 20.5565 6.6404C20.4838 6.62596 20.417 6.5903 20.3646 6.53792L17.2976 3.46982C17.1101 3.28228 17.0048 3.02798 17.0048 2.76282V2.01027C17.0048 1.74505 17.1102 1.4907 17.2977 1.30316C17.4852 1.11563 17.7396 1.01027 18.0048 1.01027H20.0046ZM20.0046 23.0103H15.5046C15.2394 23.0103 14.985 22.9049 14.7975 22.7174C14.61 22.5298 14.5046 22.2755 14.5046 22.0103V16.0103C14.5046 15.7451 14.3993 15.4907 14.2117 15.3032C14.0242 15.1156 13.7698 15.0103 13.5046 15.0103H10.5046C10.2394 15.0103 9.98504 15.1156 9.7975 15.3032C9.60996 15.4907 9.50461 15.7451 9.50461 16.0103V22.0103C9.50461 22.2755 9.39925 22.5298 9.21171 22.7174C9.02418 22.9049 8.76982 23.0103 8.50461 23.0103H4.00461C3.73939 23.0103 3.48504 22.9049 3.2975 22.7174C3.10996 22.5298 3.00461 22.2755 3.00461 22.0103V13.0037H1.00961C0.811819 13.0036 0.618499 12.9449 0.45408 12.8349C0.28966 12.725 0.161521 12.5688 0.0858576 12.3861C0.0101937 12.2033 -0.00959916 12.0022 0.0289804 11.8082C0.06756 11.6143 0.16278 11.4361 0.302608 11.2962L11.2996 0.292919C11.3924 0.200055 11.5026 0.126389 11.6239 0.076129C11.7452 0.025869 11.8752 0 12.0065 0C12.1378 0 12.2678 0.025869 12.3891 0.076129C12.5104 0.126389 12.6206 0.200055 12.7135 0.292919L23.7105 11.2962C23.8503 11.436 23.9455 11.6142 23.9841 11.8082C24.0227 12.0022 24.003 12.2033 23.9273 12.386C23.8517 12.5688 23.7235 12.725 23.5591 12.8349C23.3947 12.9449 23.2014 13.0036 23.0036 13.0037H21.0046V22.0102C21.0046 22.2754 20.8992 22.5298 20.7117 22.7173C20.5242 22.9049 20.2698 23.0102 20.0046 23.0102V23.0103Z" fill=""/>
</svg>
