<svg width="22" height="19" viewBox="0 0 22 19" fill="none" xmlns="http://www.w3.org/2000/svg">
<path fill-rule="evenodd" clip-rule="evenodd" d="M1.44336 0.0117188H20.5684C20.8667 0.0117188 21.1529 0.130244 21.3639 0.341223C21.5748 0.552201 21.6934 0.83835 21.6934 1.13672C21.6934 1.43509 21.5748 1.72124 21.3639 1.93221C21.1529 2.14319 20.8667 2.26172 20.5684 2.26172H1.44336C1.14499 2.26172 0.858842 2.14319 0.647864 1.93221C0.436886 1.72124 0.318359 1.43509 0.318359 1.13672C0.318359 0.83835 0.436886 0.552201 0.647864 0.341223C0.858842 0.130244 1.14499 0.0117188 1.44336 0.0117188ZM1.44336 7.88672H20.5684C20.8667 7.88672 21.1529 8.00524 21.3639 8.21622C21.5748 8.4272 21.6934 8.71335 21.6934 9.01172C21.6934 9.31009 21.5748 9.59623 21.3639 9.80721C21.1529 10.0182 20.8667 10.1367 20.5684 10.1367H1.44336C1.14499 10.1367 0.858842 10.0182 0.647864 9.80721C0.436886 9.59623 0.318359 9.31009 0.318359 9.01172C0.318359 8.71335 0.436886 8.4272 0.647864 8.21622C0.858842 8.00524 1.14499 7.88672 1.44336 7.88672ZM1.44336 15.7617H20.5684C20.8667 15.7617 21.1529 15.8802 21.3639 16.0912C21.5748 16.3022 21.6934 16.5884 21.6934 16.8867C21.6934 17.1851 21.5748 17.4712 21.3639 17.6822C21.1529 17.8932 20.8667 18.0117 20.5684 18.0117H1.44336C1.14499 18.0117 0.858842 17.8932 0.647864 17.6822C0.436886 17.4712 0.318359 17.1851 0.318359 16.8867C0.318359 16.5884 0.436886 16.3022 0.647864 16.0912C0.858842 15.8802 1.14499 15.7617 1.44336 15.7617Z" fill=""/>
</svg>
