<svg width="24" height="25" viewBox="0 0 24 25" fill="none" xmlns="http://www.w3.org/2000/svg">
<path fill-rule="evenodd" clip-rule="evenodd" d="M12.0059 24.0107C9.63249 24.0107 7.31241 23.307 5.33902 21.9884C3.36563 20.6698 1.82756 18.7957 0.91931 16.6029C0.0110588 14.4102 -0.226581 11.9974 0.236441 9.66966C0.699464 7.34189 1.84235 5.2037 3.52058 3.52547C5.19881 1.84724 7.33701 0.704347 9.66478 0.241324C11.9926 -0.221699 14.4054 0.015942 16.5981 0.924194C18.7908 1.83245 20.6649 3.37051 21.9835 5.3439C23.3021 7.31729 24.0059 9.63737 24.0059 12.0107C24.0059 15.1933 22.7416 18.2456 20.4911 20.496C18.2407 22.7465 15.1885 24.0107 12.0059 24.0107ZM16.7539 14.2357L13.435 11.2453L12.7578 4.67935C12.7373 4.49475 12.6495 4.32419 12.5111 4.20031C12.3727 4.07644 12.1935 4.00794 12.0078 4.00794C11.8221 4.00794 11.6429 4.07644 11.5045 4.20031C11.3661 4.32419 11.2783 4.49475 11.2578 4.67935C11.2487 4.7673 10.5113 11.9198 10.5018 12.007C10.4767 12.2546 10.5299 12.5038 10.6539 12.7195C10.7779 12.9352 10.9665 13.1065 11.193 13.2094L15.9725 15.4394C16.1307 15.5111 16.3093 15.5237 16.476 15.475C16.6427 15.4262 16.7863 15.3193 16.8809 15.1737C16.9755 15.028 17.0147 14.8533 16.9914 14.6812C16.9682 14.5091 16.884 14.3511 16.7541 14.2357H16.7539Z" fill=""/>
</svg>
