<svg width="25" height="24" viewBox="0 0 25 24" fill="none" xmlns="http://www.w3.org/2000/svg">
<path d="M5.66946 11.341H9.17155C10.8096 11.341 11.591 10.569 11.591 8.90272V5.4477C11.591 3.78138 10.8096 3 9.17155 3H5.66946C4.03138 3 3.25 3.78138 3.25 5.4477V8.90272C3.25 10.569 4.03138 11.341 5.66946 11.341ZM15.3285 11.341H18.8305C20.4686 11.341 21.25 10.569 21.25 8.90272V5.4477C21.25 3.78138 20.4686 3 18.8305 3H15.3285C13.6904 3 12.909 3.78138 12.909 5.4477V8.90272C12.909 10.569 13.6904 11.341 15.3285 11.341ZM5.54707 9.57113C5.17992 9.57113 5.01987 9.40167 5.01987 9.03452V5.30649C5.01987 4.93933 5.17992 4.76987 5.54707 4.76987H9.29393C9.65167 4.76987 9.82113 4.93933 9.82113 5.30649V9.03452C9.82113 9.40167 9.65167 9.57113 9.29393 9.57113H5.54707ZM15.2061 9.57113C14.8389 9.57113 14.6789 9.40167 14.6789 9.03452V5.30649C14.6789 4.93933 14.8389 4.76987 15.2061 4.76987H18.9529C19.3201 4.76987 19.4801 4.93933 19.4801 5.30649V9.03452C19.4801 9.40167 19.3201 9.57113 18.9529 9.57113H15.2061ZM6.51674 8.28138H8.31485C8.46548 8.28138 8.53138 8.2249 8.53138 8.03661V6.29498C8.53138 6.12552 8.46548 6.05962 8.31485 6.05962H6.51674C6.35669 6.05962 6.30962 6.12552 6.30962 6.29498V8.03661C6.30962 8.2249 6.35669 8.28138 6.51674 8.28138ZM16.204 8.28138H18.0021C18.1621 8.28138 18.228 8.2249 18.228 8.03661V6.29498C18.228 6.12552 18.1621 6.05962 18.0021 6.05962H16.204C16.0533 6.05962 15.9969 6.12552 15.9969 6.29498V8.03661C15.9969 8.2249 16.0533 8.28138 16.204 8.28138ZM5.66946 21H9.17155C10.8096 21 11.591 20.228 11.591 18.5617V15.1067C11.591 13.4404 10.8096 12.659 9.17155 12.659H5.66946C4.03138 12.659 3.25 13.4404 3.25 15.1067V18.5617C3.25 20.228 4.03138 21 5.66946 21ZM13.6056 15.3044H15.4038C15.5638 15.3044 15.6297 15.2479 15.6297 15.0596V13.318C15.6297 13.1485 15.5638 13.0826 15.4038 13.0826H13.6056C13.455 13.0826 13.3985 13.1485 13.3985 13.318V15.0596C13.3985 15.2479 13.455 15.3044 13.6056 15.3044ZM18.7176 15.3044H20.5157C20.6757 15.3044 20.7322 15.2479 20.7322 15.0596V13.318C20.7322 13.1485 20.6757 13.0826 20.5157 13.0826H18.7176C18.5669 13.0826 18.5105 13.1485 18.5105 13.318V15.0596C18.5105 15.2479 18.5669 15.3044 18.7176 15.3044ZM5.54707 19.2301C5.17992 19.2301 5.01987 19.0607 5.01987 18.7029V14.9749C5.01987 14.5983 5.17992 14.4289 5.54707 14.4289H9.29393C9.65167 14.4289 9.82113 14.5983 9.82113 14.9749V18.7029C9.82113 19.0607 9.65167 19.2301 9.29393 19.2301H5.54707ZM16.1851 17.8651H17.9833C18.1433 17.8651 18.2092 17.7992 18.2092 17.6203V15.8692C18.2092 15.6998 18.1433 15.6339 17.9833 15.6339H16.1851C16.0345 15.6339 15.978 15.6998 15.978 15.8692V17.6203C15.978 17.7992 16.0345 17.8651 16.1851 17.8651ZM6.51674 17.9404H8.31485C8.46548 17.9404 8.53138 17.8839 8.53138 17.6956V15.954C8.53138 15.7845 8.46548 15.7186 8.31485 15.7186H6.51674C6.35669 15.7186 6.30962 15.7845 6.30962 15.954V17.6956C6.30962 17.8839 6.35669 17.9404 6.51674 17.9404ZM13.6056 20.4163H15.4038C15.5638 20.4163 15.6297 20.3504 15.6297 20.1715V18.4299C15.6297 18.251 15.5638 18.1946 15.4038 18.1946H13.6056C13.455 18.1946 13.3985 18.251 13.3985 18.4299V20.1715C13.3985 20.3504 13.455 20.4163 13.6056 20.4163ZM18.7176 20.4163H20.5157C20.6757 20.4163 20.7322 20.3504 20.7322 20.1715V18.4299C20.7322 18.251 20.6757 18.1946 20.5157 18.1946H18.7176C18.5669 18.1946 18.5105 18.251 18.5105 18.4299V20.1715C18.5105 20.3504 18.5669 20.4163 18.7176 20.4163Z" fill=""/>
</svg>
